<svg width="440" height="200" viewBox="0 0 440 200" fill="none" xmlns="http://www.w3.org/2000/svg">
<path d="M11.8 92.92V10H55.36C69.68 10 80.2 12.36 86.92 17.08C93.64 21.72 97 29.8 97 41.32C97 50.52 94.44 57.4 89.32 61.96C84.92 65.88 77.8 68.32 67.96 69.28C63.8 69.68 58.84 69.88 53.08 69.88V92.92H11.8ZM53.08 57.28H56.56C57.52 57.28 58.32 56.96 58.96 56.32C59.6 55.68 59.92 54.84 59.92 53.8V48.28C59.92 47.24 59.6 46.44 58.96 45.88C58.32 45.24 57.52 44.92 56.56 44.92H53.08V57.28Z" fill="black"/>
<path d="M99.8687 10H141.149V62.08H153.389V92.92H99.8687V10Z" fill="black"/>
<path d="M202.58 92.92L201.86 80.08H194.54L193.82 92.92H156.02C156.82 79.8 158.46 66.36 160.94 52.6C163.42 38.76 165.7 28.2 167.78 20.92L170.78 10H227.66C228.54 12.88 229.66 16.88 231.02 22C232.38 27.12 234.38 36.96 237.02 51.52C239.66 66 241.46 79.8 242.42 92.92H202.58ZM196.34 50.32L195.38 69.04H201.02L200.18 50.32H196.34Z" fill="black"/>
<path d="M305.929 92.92H260.929V73.36C258.689 72.4 257.129 71.72 256.249 71.32C255.369 70.92 253.929 70.08 251.929 68.8C250.009 67.52 248.569 66.2 247.609 64.84C244.969 61.24 243.289 56.8 242.569 51.52L237.409 10H279.889L282.889 51.04H285.529L288.049 10H329.449L324.289 51.52C323.569 56.8 321.889 61.24 319.249 64.84C318.289 66.2 316.809 67.52 314.809 68.8C312.889 70.08 311.489 70.92 310.609 71.32C309.729 71.72 308.169 72.4 305.929 73.36V92.92Z" fill="black"/>
<path d="M56.56 192.92L55.84 180.08H48.52L47.8 192.92H10C10.8 179.8 12.44 166.36 14.92 152.6C17.4 138.76 19.68 128.2 21.76 120.92L24.76 110H81.64C82.52 112.88 83.64 116.88 85 122C86.36 127.12 88.36 136.96 91 151.52C93.64 166 95.44 179.8 96.4 192.92H56.56ZM50.32 150.32L49.36 169.04H55L54.16 150.32H50.32Z" fill="black"/>
<path d="M145.486 147.44V110H184.966V192.92H145.486V164.96H138.526V192.92H99.1656V110H138.526V147.44H145.486Z" fill="black"/>
<path d="M189.461 110H256.661V144.92H230.741V149.72H256.661V157.28H230.741V162.08H257.741V192.92H189.461V110Z" fill="black"/>
<path d="M306.938 192.92L306.218 180.08H298.898L298.178 192.92H260.378C261.178 179.8 262.818 166.36 265.298 152.6C267.778 138.76 270.058 128.2 272.138 120.92L275.138 110H332.018C332.898 112.88 334.018 116.88 335.378 122C336.738 127.12 338.738 136.96 341.378 151.52C344.018 166 345.818 179.8 346.778 192.92H306.938ZM300.698 150.32L299.738 169.04H305.378L304.538 150.32H300.698Z" fill="black"/>
<path d="M349.544 110H392.864C406.224 110 416.424 113.2 423.464 119.6C430.584 126 434.144 136.44 434.144 150.92C434.144 178.92 419.824 192.92 391.184 192.92H349.544V110ZM389.864 144.92V165.68H393.224C394.184 165.68 394.984 165.36 395.624 164.72C396.344 164.08 396.704 163.24 396.704 162.2V148.28C396.704 147.32 396.344 146.52 395.624 145.88C394.984 145.24 394.184 144.92 393.224 144.92H389.864Z" fill="black"/>
<path d="M409.556 58.9099L349.556 92.92L349.556 24.92L409.556 58.9099Z" fill="black"/>
</svg>
